<svg width="21" height="22" viewBox="0 0 21 22" fill="none" xmlns="http://www.w3.org/2000/svg">
<path d="M15.1667 0.524902C18.1005 0.524902 20.5 2.96659 20.5 6.00485V15.5728C20.5 18.611 18.1005 21.0527 15.1667 21.0527H5.83333C2.89945 21.0527 0.5 18.611 0.5 15.5728L0.5 6.00485C0.5 2.96659 2.89945 0.524902 5.83333 0.524902L15.1667 0.524902ZM15.1667 1.91688L5.83333 1.91688C3.61257 1.91688 1.83333 3.7589 1.83333 6.00485L1.83333 15.5728C1.83333 17.8188 3.61258 19.6607 5.83333 19.6607H15.1667C17.3875 19.6607 19.1667 17.8188 19.1667 15.5728V6.00485C19.1667 3.75891 17.3875 1.91688 15.1667 1.91688ZM10.5 6.50485C12.7895 6.50485 14.6667 8.41107 14.6667 10.7888C14.6667 13.1665 12.7895 15.0728 10.5 15.0728C8.21044 15.0728 6.33333 13.1665 6.33333 10.7888C6.33333 8.41107 8.21044 6.50485 10.5 6.50485ZM10.5 7.89683C8.92353 7.89683 7.66667 9.20335 7.66667 10.7888C7.66667 12.3743 8.92353 13.6808 10.5 13.6808C12.0765 13.6808 13.3333 12.3743 13.3333 10.7888C13.3333 9.20335 12.0765 7.89683 10.5 7.89683ZM15.75 4.71086C16.1066 4.71086 16.4167 5.0107 16.4167 5.40685C16.4167 5.80301 16.1066 6.10284 15.75 6.10284C15.3934 6.10284 15.0833 5.80301 15.0833 5.40685C15.0833 5.0107 15.3934 4.71086 15.75 4.71086Z" fill="#FF813B" stroke="black"/>
</svg>
